<?xml version="1.0" encoding="utf-8"?>
<!-- Generator: Adobe Illustrator 22.1.0, SVG Export Plug-In . SVG Version: 6.00 Build 0)  -->
<svg version="1.1" id="Layer_1" xmlns="http://www.w3.org/2000/svg" xmlns:xlink="http://www.w3.org/1999/xlink" x="0px" y="0px"
	 viewBox="0 0 147.7 55.9" style="enable-background:new 0 0 147.7 55.9;" xml:space="preserve">
<style type="text/css">
	.st0{fill:#72166B;}
	.st1{fill:#E7E7E8;}
	.st2{fill:#6E6E71;}
	.st3{fill:#DADADA;}
	.st4{opacity:0.5;}
	.st5{fill:#FFFFFF;}
	.st6{fill:#C6C6C6;}
	.st7{fill:#561450;}
	.st8{fill:#6E6E71;fill-opacity:0.46;}
	.st9{fill:#0085CC;}
	.st10{fill:#AC22A1;}
	.st11{opacity:0.5;fill:#EDEDED;}
	.st12{fill:#EDEDED;}
	.st13{fill:#B2B2B2;}
	.st14{opacity:0.7;}
	.st15{fill:#F18A0D;}
	.st16{fill:#1D1D1B;}
	.st17{fill:#F9F9F9;}
	.st18{fill:none;stroke:#DADADA;stroke-width:2;stroke-miterlimit:10;}
	.st19{fill:none;stroke:#DADADA;stroke-miterlimit:10;}
	.st20{fill:#3C3C3B;}
	.st21{fill:#8C61AA;}
	.st22{fill:none;stroke:#72166B;stroke-width:4;stroke-miterlimit:10;}
	.st23{fill:#FFFFFF;stroke:#72166B;stroke-width:4;stroke-miterlimit:10;}
	.st24{fill:none;stroke:#72166B;stroke-width:3.53;stroke-miterlimit:10;}
	.st25{fill:#FFFFFF;stroke:#72166B;stroke-width:3.53;stroke-miterlimit:10;}
	.st26{fill:none;stroke:#72166B;stroke-width:1.7587;stroke-miterlimit:10;}
	.st27{fill:#FFFFFF;stroke:#72166B;stroke-width:1.7587;stroke-miterlimit:10;}
	.st28{fill:none;stroke:#36A9E1;stroke-miterlimit:10;}
	.st29{fill:none;}
</style>
<g id="XMLID_7_">
	<g>
		<path class="st5" d="M19.3,44v-22h1.6v22H19.3z"/>
		<path class="st5" d="M27.6,21.9h1.6v4.7h0.1c0.3-0.8,0.7-1.6,1.2-2.2s1.1-1.2,1.8-1.7c0.7-0.5,1.5-0.8,2.3-1
			c0.8-0.2,1.7-0.3,2.5-0.3c1.3,0,2.4,0.2,3.3,0.5c0.9,0.3,1.6,0.7,2.2,1.2c0.6,0.5,1,1.1,1.4,1.7s0.6,1.3,0.7,2
			c0.1,0.7,0.2,1.3,0.3,1.9c0,0.6,0,1.2,0,1.6V44h-1.6V30c0-0.5,0-1.2-0.1-2.1c-0.1-0.8-0.3-1.6-0.8-2.4c-0.4-0.8-1-1.4-1.9-2
			c-0.8-0.5-2-0.8-3.5-0.8c-1.3,0-2.4,0.2-3.3,0.7c-1,0.5-1.8,1.1-2.5,1.9c-0.7,0.8-1.2,1.8-1.6,2.9c-0.4,1.1-0.5,2.4-0.5,3.7V44
			h-1.6V21.9z"/>
		<path class="st5" d="M66,39.6L66,39.6c-0.3,0.7-0.7,1.3-1.2,1.9C64.3,42,63.7,42.6,63,43c-0.7,0.5-1.5,0.8-2.4,1.1
			c-0.9,0.3-1.9,0.4-2.9,0.4c-2.3,0-4.2-0.5-5.4-1.5c-1.3-1-1.9-2.6-1.9-4.7c0-1.3,0.3-2.3,0.8-3.2c0.5-0.8,1.2-1.5,2-1.9
			c0.8-0.5,1.7-0.8,2.6-1c1-0.2,1.9-0.3,2.8-0.4l2.5-0.2c1.2-0.1,2.1-0.2,2.8-0.4c0.7-0.2,1.2-0.4,1.5-0.8s0.6-0.8,0.6-1.3
			c0.1-0.5,0.1-1.2,0.1-1.9c0-0.6-0.1-1.2-0.3-1.7c-0.2-0.5-0.6-1-1.1-1.4c-0.5-0.4-1.1-0.7-1.9-0.9c-0.8-0.2-1.7-0.3-2.8-0.3
			c-2,0-3.6,0.5-4.8,1.5s-1.9,2.4-2,4.4h-1.6c0.1-2.4,0.9-4.3,2.3-5.5c1.4-1.2,3.5-1.8,6.2-1.8s4.6,0.5,5.8,1.6
			c1.2,1,1.8,2.4,1.8,4.1v12.8c0,0.3,0,0.6,0,0.9s0.1,0.6,0.2,0.9c0.1,0.3,0.2,0.5,0.4,0.6c0.2,0.2,0.5,0.2,0.9,0.2
			c0.3,0,0.7,0,1.2-0.1v1.4c-0.4,0.1-0.9,0.2-1.3,0.2c-0.7,0-1.2-0.1-1.6-0.3c-0.4-0.2-0.7-0.4-0.9-0.7c-0.2-0.3-0.3-0.6-0.4-1
			C66,41.6,66,41.2,66,40.7V39.6z M66,31.4c-0.4,0.5-1,0.8-1.8,1c-0.8,0.2-1.7,0.3-2.7,0.4l-2.7,0.3c-0.8,0.1-1.6,0.2-2.4,0.4
			c-0.8,0.2-1.5,0.4-2.2,0.8c-0.6,0.4-1.2,0.9-1.6,1.5S52,37.2,52,38.3c0,1.6,0.5,2.8,1.5,3.6c1,0.8,2.4,1.2,4.2,1.2
			c1.9,0,3.3-0.3,4.4-1c1.1-0.7,1.9-1.4,2.5-2.3c0.6-0.9,0.9-1.7,1.1-2.5c0.2-0.8,0.2-1.4,0.2-1.7V31.4z"/>
		<path class="st5" d="M74.3,21.9h1.6v4.7H76c0.3-0.8,0.7-1.6,1.2-2.2c0.5-0.6,1.1-1.2,1.8-1.7c0.7-0.5,1.5-0.8,2.3-1
			c0.8-0.2,1.7-0.3,2.5-0.3c1.3,0,2.4,0.2,3.3,0.5c0.9,0.3,1.6,0.7,2.2,1.2c0.6,0.5,1,1.1,1.4,1.7c0.3,0.6,0.6,1.3,0.7,2
			c0.1,0.7,0.2,1.3,0.3,1.9c0,0.6,0,1.2,0,1.6V44h-1.6V30c0-0.5,0-1.2-0.1-2.1c-0.1-0.8-0.3-1.6-0.8-2.4c-0.4-0.8-1-1.4-1.9-2
			c-0.8-0.5-2-0.8-3.5-0.8c-1.3,0-2.4,0.2-3.3,0.7c-1,0.5-1.8,1.1-2.5,1.9c-0.7,0.8-1.2,1.8-1.6,2.9c-0.4,1.1-0.5,2.4-0.5,3.7V44
			h-1.6V21.9z"/>
		<path class="st5" d="M116.3,21.9v20.9c0,1.2-0.1,2.4-0.4,3.6c-0.3,1.2-0.8,2.2-1.5,3.1s-1.7,1.6-2.9,2.1s-2.8,0.8-4.7,0.8
			c-1.2,0-2.3-0.1-3.3-0.4c-1-0.2-1.9-0.6-2.7-1.2c-0.8-0.5-1.4-1.2-1.9-2.1c-0.5-0.9-0.7-2-0.8-3.2h1.6c0.1,1,0.3,1.8,0.7,2.5
			c0.4,0.7,0.9,1.3,1.6,1.7s1.4,0.8,2.2,1c0.8,0.2,1.7,0.3,2.6,0.3c1.5,0,2.8-0.2,3.8-0.7c1-0.5,1.8-1.1,2.4-1.8
			c0.6-0.7,1-1.6,1.3-2.5c0.2-0.9,0.4-1.9,0.4-2.8v-5.1h-0.1c-0.8,1.6-1.8,2.9-3.1,3.7c-1.3,0.9-2.9,1.3-4.8,1.3
			c-1.6,0-3-0.3-4.2-0.8c-1.2-0.6-2.2-1.3-3-2.3c-0.8-1-1.4-2.1-1.8-3.5c-0.4-1.3-0.6-2.7-0.6-4.3c0-1.5,0.2-2.8,0.6-4.2
			c0.4-1.3,1-2.5,1.8-3.5s1.8-1.8,3-2.4c1.2-0.6,2.6-0.9,4.1-0.9c1.7,0,3.4,0.4,4.8,1.3c1.5,0.9,2.5,2.1,3.2,3.8h0.1v-4.6H116.3z
			 M106.6,22.8c-1.3,0-2.5,0.3-3.5,0.8c-1,0.5-1.8,1.3-2.4,2.1c-0.6,0.9-1.1,1.9-1.5,3c-0.3,1.1-0.5,2.3-0.5,3.5
			c0,1.3,0.2,2.5,0.5,3.7c0.3,1.2,0.8,2.2,1.5,3s1.5,1.5,2.5,2c1,0.5,2.1,0.8,3.4,0.8c1.3,0,2.5-0.3,3.5-0.8c1-0.5,1.8-1.2,2.5-2.1
			c0.7-0.9,1.2-1.9,1.5-3c0.3-1.1,0.5-2.3,0.5-3.6c0-1.2-0.2-2.4-0.5-3.6c-0.3-1.1-0.8-2.2-1.5-3c-0.7-0.9-1.5-1.6-2.5-2.1
			C109.1,23.1,107.9,22.8,106.6,22.8z"/>
		<path class="st5" d="M121.6,32.9c0-1.6,0.2-3.1,0.7-4.4c0.4-1.4,1.1-2.6,2-3.7c0.9-1.1,1.9-1.9,3.2-2.5c1.3-0.6,2.7-0.9,4.3-0.9
			c1.6,0,3.1,0.3,4.3,0.9c1.3,0.6,2.3,1.5,3.2,2.5c0.9,1.1,1.5,2.3,2,3.7s0.7,2.9,0.7,4.4c0,1.6-0.2,3.1-0.7,4.5s-1.1,2.6-2,3.7
			c-0.9,1-1.9,1.9-3.2,2.5c-1.3,0.6-2.7,0.9-4.3,0.9c-1.6,0-3.1-0.3-4.3-0.9c-1.3-0.6-2.3-1.4-3.2-2.5c-0.9-1-1.5-2.3-2-3.7
			C121.8,36,121.6,34.5,121.6,32.9z M123.2,32.9c0,1.3,0.2,2.6,0.6,3.8s0.9,2.3,1.6,3.2c0.7,0.9,1.6,1.7,2.7,2.3
			c1.1,0.6,2.3,0.8,3.6,0.8c1.4,0,2.6-0.3,3.6-0.8c1.1-0.6,1.9-1.3,2.7-2.3c0.7-0.9,1.3-2,1.6-3.2s0.6-2.5,0.6-3.8
			c0-1.3-0.2-2.6-0.6-3.8c-0.4-1.2-0.9-2.3-1.6-3.2c-0.7-0.9-1.6-1.7-2.7-2.3c-1.1-0.6-2.3-0.8-3.6-0.8c-1.4,0-2.6,0.3-3.6,0.8
			c-1.1,0.6-1.9,1.3-2.7,2.3c-0.7,0.9-1.3,2-1.6,3.2C123.4,30.4,123.2,31.6,123.2,32.9z"/>
	</g>
	<polygon id="XMLID_8_" class="st15" points="20,17.6 25.7,28.6 20.4,17.4 21,17.8 20.8,17.1 21.4,17.4 21,16.7 21.8,16.9 
		21.3,16.4 26.5,18 21.4,15.9 22.2,15.8 21.5,15.5 22.2,15.3 21.5,15 22.2,14.7 21.4,14.6 22,14.1 21.3,14.2 32.1,8.6 21,13.8 
		21.4,13.2 20.8,13.5 21,12.7 20.4,13.2 20.5,12.4 20,13 21.1,8.4 19.6,12.8 19.5,12.1 19.1,12.8 18.9,12 18.7,12.8 18.3,12.1 
		18.2,12.9 17.7,12.3 17.8,13 12.5,3.3 17.4,13.3 16.8,12.9 17.1,13.6 16.4,13.4 16.9,14 16.1,13.9 16.7,14.4 11.4,13.3 16.5,14.8 
		15.8,15 16.5,15.3 15.8,15.5 16.6,15.7 15.9,16.1 16.7,16.1 5.7,21.9 16.9,16.6 16.4,17.1 17.1,16.9 16.8,17.6 17.4,17.2 
		17.2,17.9 17.8,17.5 17.8,18.2 18.3,17.6 16.9,24 18.7,17.8 18.9,18.5 19.1,17.8 19.5,18.4 19.6,17.7 20,18.3 20,17.6 	"/>
</g>
</svg>
