<?xml version="1.0" encoding="utf-8"?>
<!-- Generator: Adobe Illustrator 22.1.0, SVG Export Plug-In . SVG Version: 6.00 Build 0)  -->
<svg version="1.1" id="Layer_1" xmlns="http://www.w3.org/2000/svg" xmlns:xlink="http://www.w3.org/1999/xlink" x="0px" y="0px"
	 viewBox="0 0 125.7 60" style="enable-background:new 0 0 125.7 60;" xml:space="preserve">
<style type="text/css">
	.st0{fill:#72166B;}
	.st1{fill:#E7E7E8;}
	.st2{fill:#6E6E71;}
	.st3{fill:#DADADA;}
	.st4{opacity:0.5;}
	.st5{fill:#FFFFFF;}
	.st6{fill:#561450;}
	.st7{fill:#C6C6C6;}
	.st8{fill:#6E6E71;fill-opacity:0.46;}
	.st9{fill:#0085CC;}
	.st10{fill:#AC22A1;}
	.st11{opacity:0.5;fill:#EDEDED;}
	.st12{fill:#EDEDED;}
	.st13{fill:#B2B2B2;}
	.st14{opacity:0.8;}
	.st15{fill:#F18A0D;}
	.st16{fill:#1D1D1B;}
	.st17{fill:#F9F9F9;}
	.st18{fill:none;stroke:#DADADA;stroke-width:2;stroke-miterlimit:10;}
	.st19{fill:none;stroke:#DADADA;stroke-miterlimit:10;}
	.st20{fill:#3C3C3B;}
	.st21{fill:#8C61AA;}
	.st22{fill:none;stroke:#72166B;stroke-width:4;stroke-miterlimit:10;}
	.st23{fill:#FFFFFF;stroke:#72166B;stroke-width:4;stroke-miterlimit:10;}
	.st24{fill:none;stroke:#72166B;stroke-width:3.53;stroke-miterlimit:10;}
	.st25{fill:#FFFFFF;stroke:#72166B;stroke-width:3.53;stroke-miterlimit:10;}
	.st26{fill:none;stroke:#72166B;stroke-width:1.7587;stroke-miterlimit:10;}
	.st27{fill:#FFFFFF;stroke:#72166B;stroke-width:1.7587;stroke-miterlimit:10;}
	.st28{fill:#441042;}
	.st29{fill:none;stroke:#36A9E1;stroke-miterlimit:10;}
	.st30{fill:none;}
	.st31{opacity:0.7;}
	.st32{fill:#1D1D1B;fill-opacity:0.46;}
</style>
<g id="XMLID_13_">
	<g>
		<path class="st5" d="M21.3,30.6V15.2h1.1v15.5H21.3z"/>
		<path class="st5" d="M27.2,15.2h1.1v3.3h0.1c0.2-0.6,0.5-1.1,0.9-1.6c0.4-0.5,0.8-0.8,1.3-1.2c0.5-0.3,1-0.6,1.6-0.7
			c0.6-0.2,1.2-0.2,1.8-0.2c0.9,0,1.7,0.1,2.3,0.3s1.1,0.5,1.6,0.9c0.4,0.4,0.7,0.8,0.9,1.2c0.2,0.5,0.4,0.9,0.5,1.4
			c0.1,0.5,0.2,0.9,0.2,1.3c0,0.4,0,0.8,0,1.1v9.6h-1.1v-9.8c0-0.4,0-0.9-0.1-1.4c-0.1-0.6-0.2-1.1-0.5-1.7c-0.3-0.5-0.7-1-1.3-1.4
			c-0.6-0.4-1.4-0.6-2.5-0.6c-0.9,0-1.7,0.2-2.3,0.5c-0.7,0.3-1.3,0.8-1.7,1.3c-0.5,0.6-0.8,1.3-1.1,2s-0.4,1.7-0.4,2.6v8.4h-1.1
			V15.2z"/>
		<path class="st5" d="M54.1,27.6L54.1,27.6c-0.2,0.5-0.5,0.9-0.8,1.3c-0.3,0.4-0.8,0.8-1.2,1.1c-0.5,0.3-1,0.6-1.7,0.8
			c-0.6,0.2-1.3,0.3-2,0.3c-1.6,0-2.9-0.4-3.8-1.1c-0.9-0.7-1.4-1.8-1.4-3.3c0-0.9,0.2-1.6,0.5-2.2c0.4-0.6,0.8-1,1.4-1.4
			c0.6-0.3,1.2-0.6,1.8-0.7c0.7-0.1,1.3-0.2,1.9-0.3l1.8-0.2c0.8-0.1,1.5-0.2,1.9-0.3c0.5-0.1,0.8-0.3,1.1-0.5s0.4-0.5,0.5-0.9
			c0.1-0.4,0.1-0.8,0.1-1.4c0-0.4-0.1-0.8-0.2-1.2c-0.2-0.4-0.4-0.7-0.8-1c-0.3-0.3-0.8-0.5-1.3-0.7c-0.5-0.2-1.2-0.2-2-0.2
			c-1.4,0-2.5,0.3-3.4,1c-0.9,0.7-1.3,1.7-1.4,3.1H44c0.1-1.7,0.6-3,1.6-3.8c1-0.9,2.5-1.3,4.3-1.3c1.9,0,3.2,0.4,4.1,1.1
			c0.9,0.7,1.3,1.7,1.3,2.9v9c0,0.2,0,0.4,0,0.7c0,0.2,0,0.4,0.1,0.6c0.1,0.2,0.2,0.3,0.3,0.4c0.1,0.1,0.3,0.2,0.6,0.2
			c0.2,0,0.5,0,0.8-0.1v1c-0.3,0.1-0.6,0.1-0.9,0.1c-0.5,0-0.8-0.1-1.1-0.2c-0.3-0.1-0.5-0.3-0.6-0.5c-0.1-0.2-0.2-0.4-0.3-0.7
			c-0.1-0.3-0.1-0.6-0.1-0.9V27.6z M54.1,21.8c-0.3,0.3-0.7,0.6-1.3,0.7c-0.6,0.1-1.2,0.2-1.9,0.3L49,23c-0.6,0.1-1.1,0.1-1.7,0.3
			c-0.6,0.1-1.1,0.3-1.5,0.6c-0.5,0.3-0.8,0.6-1.1,1.1c-0.3,0.5-0.4,1-0.4,1.8c0,1.1,0.4,2,1.1,2.5c0.7,0.6,1.7,0.8,3,0.8
			c1.3,0,2.3-0.2,3.1-0.7c0.8-0.5,1.3-1,1.7-1.6c0.4-0.6,0.7-1.2,0.8-1.8c0.1-0.6,0.2-1,0.2-1.2V21.8z"/>
		<path class="st5" d="M60,15.2h1.1v3.3h0.1c0.2-0.6,0.5-1.1,0.9-1.6c0.4-0.5,0.8-0.8,1.3-1.2c0.5-0.3,1-0.6,1.6-0.7
			c0.6-0.2,1.2-0.2,1.8-0.2c0.9,0,1.7,0.1,2.3,0.3s1.1,0.5,1.6,0.9c0.4,0.4,0.7,0.8,0.9,1.2c0.2,0.5,0.4,0.9,0.5,1.4
			c0.1,0.5,0.2,0.9,0.2,1.3c0,0.4,0,0.8,0,1.1v9.6h-1.1v-9.8c0-0.4,0-0.9-0.1-1.4c-0.1-0.6-0.2-1.1-0.5-1.7c-0.3-0.5-0.7-1-1.3-1.4
			c-0.6-0.4-1.4-0.6-2.5-0.6c-0.9,0-1.7,0.2-2.3,0.5c-0.7,0.3-1.3,0.8-1.7,1.3c-0.5,0.6-0.8,1.3-1.1,2s-0.4,1.7-0.4,2.6v8.4H60V15.2
			z"/>
		<path class="st5" d="M89.4,15.2v14.7c0,0.9-0.1,1.7-0.3,2.5c-0.2,0.8-0.5,1.5-1,2.2c-0.5,0.6-1.2,1.1-2,1.5
			c-0.9,0.4-2,0.6-3.3,0.6c-0.8,0-1.6-0.1-2.3-0.3c-0.7-0.2-1.4-0.4-1.9-0.8c-0.5-0.4-1-0.9-1.3-1.5c-0.3-0.6-0.5-1.4-0.6-2.3h1.1
			c0.1,0.7,0.2,1.3,0.5,1.7c0.3,0.5,0.6,0.9,1.1,1.2c0.5,0.3,1,0.5,1.5,0.7c0.6,0.1,1.2,0.2,1.8,0.2c1.1,0,2-0.2,2.7-0.5
			c0.7-0.3,1.3-0.7,1.7-1.2c0.4-0.5,0.7-1.1,0.9-1.7c0.2-0.7,0.3-1.3,0.3-2v-3.6h-0.1c-0.5,1.1-1.3,2-2.2,2.6s-2.1,0.9-3.4,0.9
			c-1.1,0-2.1-0.2-3-0.6c-0.8-0.4-1.5-0.9-2.1-1.6c-0.6-0.7-1-1.5-1.2-2.4c-0.3-0.9-0.4-1.9-0.4-3c0-1,0.1-2,0.4-2.9
			s0.7-1.7,1.3-2.4c0.6-0.7,1.3-1.2,2.1-1.7s1.8-0.6,2.9-0.6c1.2,0,2.4,0.3,3.4,0.9c1,0.6,1.8,1.5,2.2,2.6h0.1v-3.2H89.4z
			 M82.6,15.8c-0.9,0-1.8,0.2-2.5,0.6c-0.7,0.4-1.3,0.9-1.7,1.5c-0.5,0.6-0.8,1.3-1,2.1s-0.3,1.6-0.3,2.4c0,0.9,0.1,1.8,0.3,2.6
			s0.6,1.5,1.1,2.1s1.1,1.1,1.7,1.4c0.7,0.4,1.5,0.5,2.4,0.5c0.9,0,1.8-0.2,2.5-0.5c0.7-0.4,1.3-0.9,1.8-1.5
			c0.5-0.6,0.8-1.3,1.1-2.1s0.3-1.6,0.3-2.5c0-0.9-0.1-1.7-0.3-2.5c-0.2-0.8-0.6-1.5-1.1-2.1c-0.5-0.6-1.1-1.1-1.8-1.5
			C84.4,16,83.6,15.8,82.6,15.8z"/>
		<path class="st5" d="M93.1,22.9c0-1.1,0.2-2.1,0.5-3.1c0.3-1,0.8-1.8,1.4-2.6c0.6-0.7,1.3-1.3,2.2-1.8c0.9-0.4,1.9-0.6,3-0.6
			s2.2,0.2,3,0.6c0.9,0.4,1.6,1,2.2,1.8c0.6,0.7,1.1,1.6,1.4,2.6c0.3,1,0.5,2,0.5,3.1c0,1.1-0.2,2.1-0.5,3.1c-0.3,1-0.8,1.8-1.4,2.6
			c-0.6,0.7-1.3,1.3-2.2,1.7c-0.9,0.4-1.9,0.6-3,0.6s-2.2-0.2-3-0.6c-0.9-0.4-1.6-1-2.2-1.7c-0.6-0.7-1.1-1.6-1.4-2.6
			C93.3,25,93.1,24,93.1,22.9z M94.3,22.9c0,0.9,0.1,1.8,0.4,2.7c0.3,0.9,0.6,1.6,1.1,2.3c0.5,0.7,1.1,1.2,1.9,1.6
			c0.7,0.4,1.6,0.6,2.6,0.6c1,0,1.8-0.2,2.6-0.6c0.7-0.4,1.4-0.9,1.9-1.6c0.5-0.7,0.9-1.4,1.1-2.3c0.3-0.9,0.4-1.7,0.4-2.7
			s-0.1-1.8-0.4-2.7c-0.3-0.9-0.6-1.6-1.1-2.3c-0.5-0.7-1.1-1.2-1.9-1.6c-0.7-0.4-1.6-0.6-2.6-0.6c-1,0-1.8,0.2-2.6,0.6
			c-0.7,0.4-1.4,0.9-1.9,1.6c-0.5,0.7-0.9,1.4-1.1,2.3C94.4,21.1,94.3,22,94.3,22.9z"/>
	</g>
	<polygon id="XMLID_14_" class="st15" points="21.9,12.1 25.9,19.8 22.1,12 22.6,12.3 22.4,11.8 22.9,12 22.6,11.5 23.1,11.7 
		22.7,11.3 26.4,12.4 22.9,11 23.4,10.9 22.9,10.7 23.4,10.5 22.9,10.3 23.4,10.1 22.9,10 23.3,9.7 22.7,9.7 30.3,5.8 22.6,9.5 
		22.9,9 22.4,9.2 22.6,8.7 22.1,9 22.2,8.5 21.9,8.9 22.7,5.7 21.6,8.8 21.5,8.2 21.2,8.7 21.1,8.2 20.9,8.7 20.7,8.3 20.6,8.8 
		20.3,8.4 20.3,8.9 16.6,2.1 20.1,9.1 19.6,8.9 19.9,9.3 19.3,9.2 19.7,9.6 19.1,9.5 19.5,9.9 15.8,9.1 19.4,10.2 18.9,10.3 
		19.4,10.5 18.9,10.7 19.4,10.8 19,11.1 19.5,11.1 11.8,15.1 19.7,11.4 19.3,11.8 19.9,11.7 19.6,12.1 20.1,11.9 19.9,12.4 20.3,12 
		20.3,12.6 20.6,12.2 19.7,16.6 20.9,12.2 21.1,12.7 21.2,12.3 21.5,12.7 21.6,12.2 21.9,12.6 21.9,12.1 	"/>
</g>
<g class="st14">
	<path class="st5" d="M20.7,52.8H20l1.5-7.7h0.7l-0.1,0.5c0,0.2-0.1,0.5-0.1,0.5h0c0.4-0.6,1.1-1.1,2-1.1c1.3,0,2,0.9,2,2.2
		c0,2.1-1.5,3.6-3,3.6c-0.8,0-1.5-0.4-1.7-1.1h0c0,0,0,0.2-0.1,0.5L20.7,52.8z M23,50c1.1,0,2.3-1.1,2.3-2.8c0-1-0.5-1.6-1.4-1.6
		c-1.4,0-2.3,1.5-2.3,2.8C21.6,49.3,22.1,50,23,50z"/>
	<path class="st5" d="M30.4,44.9c1.5,0,2.5,1,2.5,2.4c0,1.9-1.7,3.4-3.4,3.4c-1.5,0-2.5-1-2.5-2.4C27,46.4,28.7,44.9,30.4,44.9z
		 M29.6,50c1.3,0,2.6-1.2,2.6-2.7c0-1-0.7-1.7-1.8-1.7c-1.3,0-2.6,1.2-2.6,2.7C27.8,49.3,28.5,50,29.6,50z"/>
	<path class="st5" d="M34.1,45h0.7l0.5,4.1c0,0.3,0,0.6,0,0.6h0c0,0,0.2-0.3,0.3-0.6l2.1-4.1h0.7l0.6,4.1c0,0.3,0.1,0.6,0.1,0.6h0
		c0,0,0.1-0.3,0.3-0.6l2.2-4.1h0.8l-2.9,5.5h-0.8l-0.6-4c0-0.3-0.1-0.6-0.1-0.6h0c0,0-0.1,0.3-0.3,0.6l-2.1,4h-0.8L34.1,45z"/>
	<path class="st5" d="M45.9,44.9c1.4,0,2,0.8,2,2c0,0.4-0.2,0.9-0.2,0.9h-4.2c0,0.2,0,0.3,0,0.5c0,0.9,0.6,1.7,1.8,1.7
		c1,0,1.8-0.7,1.8-0.7l0.2,0.6c0,0-0.9,0.7-2.1,0.7c-1.5,0-2.5-0.9-2.5-2.3C42.7,46.6,44.1,44.9,45.9,44.9z M47.1,47.2
		c0,0,0-0.2,0-0.4c0-0.9-0.5-1.3-1.3-1.3c-0.9,0-1.8,0.6-2.2,1.7H47.1z"/>
	<path class="st5" d="M49.8,45h0.7l-0.2,1c-0.1,0.2-0.1,0.5-0.1,0.5h0c0.4-0.8,1.1-1.5,2-1.5c0.1,0,0.2,0,0.3,0l-0.1,0.7
		c-0.1,0-0.2,0-0.3,0c-1.2,0-2.1,1.6-2.3,2.8l-0.4,2.1h-0.7L49.8,45z"/>
	<path class="st5" d="M55.9,44.9c1.4,0,2,0.8,2,2c0,0.4-0.2,0.9-0.2,0.9h-4.2c0,0.2,0,0.3,0,0.5c0,0.9,0.6,1.7,1.8,1.7
		c1,0,1.8-0.7,1.8-0.7l0.2,0.6c0,0-0.9,0.7-2.1,0.7c-1.5,0-2.5-0.9-2.5-2.3C52.7,46.6,54,44.9,55.9,44.9z M57.1,47.2
		c0,0,0-0.2,0-0.4c0-0.9-0.5-1.3-1.3-1.3c-0.9,0-1.8,0.6-2.2,1.7H57.1z"/>
	<path class="st5" d="M61.8,44.9c0.8,0,1.5,0.4,1.7,1.1h0c0,0,0-0.2,0-0.5l0.5-2.7h0.7l-1.5,7.7h-0.7l0.1-0.6c0-0.2,0.1-0.4,0.1-0.4
		h0c-0.4,0.6-1.1,1.2-2,1.2c-1.3,0-2.1-0.9-2.1-2.2C58.8,46.4,60.2,44.9,61.8,44.9z M60.9,50c1.4,0,2.3-1.5,2.3-2.9
		c0-0.9-0.4-1.6-1.4-1.6c-1.1,0-2.3,1.1-2.3,2.8C59.5,49.4,60.1,50,60.9,50z"/>
	<path class="st5" d="M68.6,42.8h0.7l-0.5,2.7c-0.1,0.3-0.1,0.5-0.1,0.5h0c0.4-0.6,1.2-1.1,2-1.1c1.3,0,2,0.9,2,2.2
		c0,2.1-1.5,3.6-3,3.6c-0.8,0-1.5-0.4-1.7-1.1h0c0,0,0,0.2-0.1,0.5l-0.1,0.5h-0.7L68.6,42.8z M69.7,50c1.1,0,2.3-1.1,2.3-2.8
		c0-1-0.5-1.6-1.4-1.6c-1.4,0-2.3,1.5-2.3,2.9C68.3,49.3,68.7,50,69.7,50z"/>
	<path class="st5" d="M73.4,52.2c0.5,0,0.9-0.4,1.2-0.9l0.5-0.8L73.8,45h0.8l0.9,4.1c0.1,0.3,0.1,0.6,0.1,0.6h0c0,0,0.2-0.3,0.3-0.6
		l2.4-4.1h0.8l-4,6.7c-0.4,0.7-1,1.1-1.7,1.1c-0.6,0-1-0.3-1-0.3l0.4-0.6C72.7,52,73,52.2,73.4,52.2z"/>
	<path class="st5" d="M83.2,42.8H84l1.1,4.5c0.1,0.4,0.2,0.9,0.2,0.9h0c0,0,0.3-0.5,0.6-0.9l2.9-4.5h0.8l-0.9,7.7H88l0.6-5.4
		c0-0.4,0.2-1.1,0.2-1.1h0c0,0-0.4,0.7-0.6,1.1l-2.6,4h-0.7l-1.1-4c-0.1-0.4-0.2-1.1-0.2-1.1h0c0,0-0.1,0.7-0.2,1.1l-1.5,5.4h-0.8
		L83.2,42.8z"/>
	<path class="st5" d="M92.6,42.8h0.8l1.1,4.5c0.1,0.4,0.2,0.9,0.2,0.9h0c0,0,0.3-0.5,0.6-0.9l2.9-4.5H99l-0.9,7.7h-0.7l0.6-5.4
		c0-0.4,0.2-1.1,0.2-1.1h0c0,0-0.4,0.7-0.6,1.1l-2.6,4h-0.7l-1.1-4c-0.1-0.4-0.2-1.1-0.2-1.1h0c0,0-0.1,0.7-0.2,1.1l-1.5,5.4h-0.8
		L92.6,42.8z"/>
	<path class="st5" d="M102.5,46.5l-1.5-3.7h0.8l0.9,2.3c0.2,0.4,0.3,0.9,0.3,0.9h0c0,0,0.3-0.5,0.6-0.9l1.8-2.3h0.9l-3,3.7l1.7,4
		h-0.8l-1.1-2.6c-0.2-0.4-0.3-0.9-0.3-0.9h0c0,0-0.3,0.4-0.6,0.8l-2.1,2.7h-0.9L102.5,46.5z"/>
</g>
</svg>
