<?xml version="1.0" encoding="utf-8"?>
<!-- Generator: Adobe Illustrator 22.1.0, SVG Export Plug-In . SVG Version: 6.00 Build 0)  -->
<svg version="1.1" id="Layer_1" xmlns="http://www.w3.org/2000/svg" xmlns:xlink="http://www.w3.org/1999/xlink" x="0px" y="0px"
	 viewBox="0 0 164.4 37.3" style="enable-background:new 0 0 164.4 37.3;" xml:space="preserve">
<style type="text/css">
	.st0{fill:#72166B;}
	.st1{fill:#E7E7E8;}
	.st2{fill:#6E6E71;}
	.st3{fill:#DADADA;}
	.st4{opacity:0.5;}
	.st5{fill:#FFFFFF;}
	.st6{fill:#C6C6C6;}
	.st7{fill:#561450;}
	.st8{fill:#6E6E71;fill-opacity:0.46;}
	.st9{fill:#0085CC;}
	.st10{fill:#AC22A1;}
	.st11{opacity:0.5;fill:#EDEDED;}
	.st12{fill:#EDEDED;}
	.st13{fill:#B2B2B2;}
	.st14{opacity:0.7;}
	.st15{fill:#F18A0D;}
	.st16{fill:#1D1D1B;}
	.st17{fill:#F9F9F9;}
	.st18{fill:none;stroke:#DADADA;stroke-width:2;stroke-miterlimit:10;}
	.st19{fill:none;stroke:#DADADA;stroke-miterlimit:10;}
	.st20{fill:#3C3C3B;}
	.st21{fill:#8C61AA;}
	.st22{fill:none;stroke:#72166B;stroke-width:4;stroke-miterlimit:10;}
	.st23{fill:#FFFFFF;stroke:#72166B;stroke-width:4;stroke-miterlimit:10;}
	.st24{fill:none;stroke:#72166B;stroke-width:3.53;stroke-miterlimit:10;}
	.st25{fill:#FFFFFF;stroke:#72166B;stroke-width:3.53;stroke-miterlimit:10;}
	.st26{fill:none;stroke:#72166B;stroke-width:1.7587;stroke-miterlimit:10;}
	.st27{fill:#FFFFFF;stroke:#72166B;stroke-width:1.7587;stroke-miterlimit:10;}
	.st28{fill:none;stroke:#36A9E1;stroke-miterlimit:10;}
	.st29{fill:none;}
</style>
<g id="XMLID_9_">
	<g>
		<path class="st5" d="M82.9,25.9V14.1h0.9v11.8H82.9z"/>
		<path class="st5" d="M87.3,14.1h0.9v2.5h0c0.2-0.4,0.4-0.8,0.7-1.2c0.3-0.3,0.6-0.6,1-0.9c0.4-0.2,0.8-0.4,1.2-0.6
			c0.4-0.1,0.9-0.2,1.4-0.2c0.7,0,1.3,0.1,1.8,0.3c0.5,0.2,0.9,0.4,1.2,0.7c0.3,0.3,0.5,0.6,0.7,0.9c0.2,0.3,0.3,0.7,0.4,1
			s0.1,0.7,0.1,1c0,0.3,0,0.6,0,0.9v7.3h-0.9v-7.5c0-0.3,0-0.7-0.1-1.1s-0.2-0.9-0.4-1.3c-0.2-0.4-0.6-0.8-1-1
			c-0.5-0.3-1.1-0.4-1.9-0.4c-0.7,0-1.3,0.1-1.8,0.4c-0.5,0.2-1,0.6-1.3,1c-0.4,0.4-0.6,1-0.8,1.6s-0.3,1.3-0.3,2v6.4h-0.9V14.1z"/>
		<path class="st5" d="M107.8,23.5L107.8,23.5c-0.2,0.4-0.4,0.7-0.6,1c-0.3,0.3-0.6,0.6-1,0.8c-0.4,0.2-0.8,0.4-1.3,0.6
			c-0.5,0.1-1,0.2-1.6,0.2c-1.3,0-2.2-0.3-2.9-0.8c-0.7-0.5-1-1.4-1-2.5c0-0.7,0.1-1.2,0.4-1.7c0.3-0.4,0.6-0.8,1-1s0.9-0.4,1.4-0.5
			c0.5-0.1,1-0.2,1.5-0.2l1.4-0.1c0.6,0,1.1-0.1,1.5-0.2c0.4-0.1,0.6-0.2,0.8-0.4c0.2-0.2,0.3-0.4,0.3-0.7c0-0.3,0.1-0.6,0.1-1
			c0-0.3-0.1-0.6-0.2-0.9c-0.1-0.3-0.3-0.5-0.6-0.7c-0.3-0.2-0.6-0.4-1-0.5c-0.4-0.1-0.9-0.2-1.5-0.2c-1.1,0-1.9,0.3-2.6,0.8
			c-0.6,0.5-1,1.3-1.1,2.4h-0.9c0.1-1.3,0.5-2.3,1.2-2.9c0.8-0.6,1.9-1,3.3-1s2.5,0.3,3.1,0.8c0.6,0.6,1,1.3,1,2.2v6.9
			c0,0.2,0,0.3,0,0.5c0,0.2,0,0.3,0.1,0.5c0,0.1,0.1,0.2,0.2,0.3c0.1,0.1,0.3,0.1,0.5,0.1c0.2,0,0.4,0,0.6-0.1v0.7
			c-0.2,0.1-0.5,0.1-0.7,0.1c-0.4,0-0.6,0-0.8-0.1c-0.2-0.1-0.4-0.2-0.5-0.4c-0.1-0.2-0.2-0.3-0.2-0.5c0-0.2-0.1-0.4-0.1-0.7V23.5z
			 M107.8,19.2c-0.2,0.3-0.5,0.4-1,0.5c-0.4,0.1-0.9,0.2-1.5,0.2l-1.5,0.1c-0.4,0-0.9,0.1-1.3,0.2c-0.4,0.1-0.8,0.2-1.2,0.4
			s-0.6,0.5-0.8,0.8c-0.2,0.3-0.3,0.8-0.3,1.3c0,0.9,0.3,1.5,0.8,1.9c0.6,0.4,1.3,0.6,2.3,0.6c1,0,1.8-0.2,2.4-0.5
			c0.6-0.4,1-0.8,1.3-1.2c0.3-0.5,0.5-0.9,0.6-1.4c0.1-0.4,0.1-0.7,0.1-0.9V19.2z"/>
		<path class="st5" d="M112.3,14.1h0.9v2.5h0c0.2-0.4,0.4-0.8,0.7-1.2c0.3-0.3,0.6-0.6,1-0.9c0.4-0.2,0.8-0.4,1.2-0.6
			c0.4-0.1,0.9-0.2,1.4-0.2c0.7,0,1.3,0.1,1.8,0.3s0.9,0.4,1.2,0.7c0.3,0.3,0.5,0.6,0.7,0.9c0.2,0.3,0.3,0.7,0.4,1
			c0.1,0.4,0.1,0.7,0.1,1c0,0.3,0,0.6,0,0.9v7.3h-0.9v-7.5c0-0.3,0-0.7-0.1-1.1s-0.2-0.9-0.4-1.3c-0.2-0.4-0.6-0.8-1-1
			c-0.5-0.3-1.1-0.4-1.9-0.4c-0.7,0-1.3,0.1-1.8,0.4c-0.5,0.2-1,0.6-1.3,1c-0.4,0.4-0.6,1-0.8,1.6c-0.2,0.6-0.3,1.3-0.3,2v6.4h-0.9
			V14.1z"/>
		<path class="st5" d="M134.7,14.1v11.2c0,0.7-0.1,1.3-0.2,1.9c-0.2,0.6-0.4,1.2-0.8,1.6c-0.4,0.5-0.9,0.9-1.5,1.1
			c-0.7,0.3-1.5,0.4-2.5,0.4c-0.6,0-1.2-0.1-1.8-0.2c-0.5-0.1-1-0.3-1.4-0.6c-0.4-0.3-0.7-0.7-1-1.1c-0.3-0.5-0.4-1-0.4-1.7h0.9
			c0,0.5,0.2,1,0.4,1.3c0.2,0.4,0.5,0.7,0.8,0.9c0.3,0.2,0.7,0.4,1.2,0.5c0.4,0.1,0.9,0.2,1.4,0.2c0.8,0,1.5-0.1,2-0.4
			c0.5-0.2,1-0.6,1.3-1c0.3-0.4,0.5-0.8,0.7-1.3c0.1-0.5,0.2-1,0.2-1.5v-2.7h-0.1c-0.4,0.9-1,1.5-1.7,2s-1.6,0.7-2.6,0.7
			c-0.9,0-1.6-0.1-2.3-0.4c-0.6-0.3-1.2-0.7-1.6-1.2c-0.4-0.5-0.7-1.1-0.9-1.8c-0.2-0.7-0.3-1.5-0.3-2.3c0-0.8,0.1-1.5,0.3-2.2
			s0.5-1.3,1-1.8c0.4-0.5,1-0.9,1.6-1.3c0.6-0.3,1.4-0.5,2.2-0.5c0.9,0,1.8,0.2,2.6,0.7c0.8,0.5,1.3,1.1,1.7,2h0v-2.5H134.7z
			 M129.5,14.6c-0.7,0-1.3,0.1-1.9,0.4c-0.5,0.3-1,0.7-1.3,1.1c-0.3,0.5-0.6,1-0.8,1.6c-0.2,0.6-0.3,1.2-0.3,1.8
			c0,0.7,0.1,1.3,0.3,2c0.2,0.6,0.4,1.2,0.8,1.6s0.8,0.8,1.3,1.1c0.5,0.3,1.1,0.4,1.8,0.4c0.7,0,1.3-0.1,1.9-0.4
			c0.5-0.3,1-0.6,1.3-1.1c0.4-0.5,0.6-1,0.8-1.6c0.2-0.6,0.3-1.2,0.3-1.9c0-0.7-0.1-1.3-0.3-1.9s-0.4-1.2-0.8-1.6
			c-0.4-0.5-0.8-0.8-1.3-1.1C130.9,14.7,130.3,14.6,129.5,14.6z"/>
		<path class="st5" d="M137.5,20c0-0.8,0.1-1.6,0.4-2.4c0.2-0.7,0.6-1.4,1-2c0.5-0.6,1-1,1.7-1.3c0.7-0.3,1.4-0.5,2.3-0.5
			c0.9,0,1.6,0.2,2.3,0.5c0.7,0.3,1.2,0.8,1.7,1.3s0.8,1.2,1,2s0.4,1.5,0.4,2.4s-0.1,1.6-0.4,2.4s-0.6,1.4-1,2c-0.5,0.6-1,1-1.7,1.3
			c-0.7,0.3-1.4,0.5-2.3,0.5c-0.9,0-1.6-0.2-2.3-0.5c-0.7-0.3-1.2-0.8-1.7-1.3c-0.5-0.6-0.8-1.2-1-2C137.7,21.6,137.5,20.8,137.5,20
			z M138.4,20c0,0.7,0.1,1.4,0.3,2s0.5,1.2,0.9,1.7s0.9,0.9,1.4,1.2c0.6,0.3,1.2,0.4,1.9,0.4c0.7,0,1.4-0.1,1.9-0.4
			c0.6-0.3,1-0.7,1.4-1.2s0.7-1.1,0.9-1.7s0.3-1.3,0.3-2s-0.1-1.4-0.3-2s-0.5-1.2-0.9-1.7c-0.4-0.5-0.9-0.9-1.4-1.2
			c-0.6-0.3-1.2-0.4-1.9-0.4c-0.7,0-1.4,0.1-1.9,0.4c-0.6,0.3-1,0.7-1.4,1.2c-0.4,0.5-0.7,1.1-0.9,1.7S138.4,19.3,138.4,20z"/>
	</g>
	<polygon id="XMLID_10_" class="st15" points="83.3,11.8 86.3,17.6 83.5,11.6 83.8,11.9 83.7,11.5 84,11.7 83.8,11.3 84.2,11.4 
		83.9,11.1 86.7,12 84,10.9 84.4,10.8 84.1,10.7 84.5,10.5 84.1,10.4 84.4,10.2 84,10.2 84.3,9.9 83.9,10 89.7,7 83.8,9.7 84,9.4 
		83.7,9.6 83.8,9.2 83.5,9.4 83.5,9 83.3,9.3 83.9,6.9 83,9.2 83,8.8 82.8,9.2 82.6,8.8 82.5,9.2 82.3,8.8 82.3,9.3 82,9 82.1,9.3 
		79.3,4.1 81.9,9.5 81.5,9.3 81.7,9.6 81.3,9.5 81.6,9.8 81.2,9.8 81.5,10.1 78.7,9.5 81.4,10.3 81,10.4 81.4,10.5 81,10.7 
		81.4,10.8 81.1,11 81.5,11 75.6,14 81.6,11.2 81.3,11.5 81.7,11.4 81.5,11.8 81.9,11.6 81.8,12 82.1,11.7 82.1,12.1 82.3,11.8 
		81.6,15.2 82.5,11.9 82.6,12.2 82.8,11.9 83,12.2 83,11.8 83.3,12.2 83.3,11.8 	"/>
</g>
<g class="st14">
	<path class="st6" d="M20.9,21.1c0,0.7-0.2,1.3-0.7,1.7c-0.5,0.4-1.2,0.6-2.1,0.6h-0.8v2.8h-0.8V19h1.9C20,19,20.9,19.7,20.9,21.1z
		 M17.2,22.6H18c0.7,0,1.3-0.1,1.6-0.4c0.3-0.2,0.5-0.6,0.5-1.1c0-0.5-0.2-0.8-0.5-1.1c-0.3-0.2-0.8-0.3-1.4-0.3h-0.9V22.6z"/>
	<path class="st6" d="M26.9,23.5c0,0.9-0.2,1.6-0.7,2c-0.4,0.5-1,0.7-1.8,0.7c-0.5,0-0.9-0.1-1.3-0.3s-0.7-0.5-0.9-1S22,24,22,23.5
		c0-0.9,0.2-1.6,0.7-2c0.4-0.5,1-0.7,1.8-0.7c0.7,0,1.3,0.2,1.8,0.7S26.9,22.6,26.9,23.5z M22.8,23.5c0,0.7,0.1,1.2,0.4,1.6
		c0.3,0.4,0.7,0.5,1.2,0.5s0.9-0.2,1.2-0.5s0.4-0.9,0.4-1.6c0-0.7-0.1-1.2-0.4-1.5c-0.3-0.4-0.7-0.5-1.2-0.5c-0.5,0-0.9,0.2-1.2,0.5
		C23,22.3,22.8,22.8,22.8,23.5z"/>
	<path class="st6" d="M32.7,26.1l-1-3.1c-0.1-0.2-0.2-0.6-0.3-1.3h0c-0.1,0.6-0.2,1-0.3,1.3l-1,3.1H29l-1.5-5.4h0.8
		c0.3,1.3,0.6,2.4,0.8,3.1s0.3,1.2,0.3,1.4h0c0-0.2,0.1-0.4,0.2-0.7c0.1-0.3,0.1-0.5,0.2-0.7l1-3.1h0.9l1,3.1c0.2,0.6,0.3,1,0.4,1.4
		h0c0-0.1,0-0.3,0.1-0.5s0.4-1.6,1-3.9h0.8l-1.5,5.4H32.7z"/>
	<path class="st6" d="M38.4,26.2c-0.8,0-1.4-0.2-1.9-0.7c-0.5-0.5-0.7-1.2-0.7-2c0-0.9,0.2-1.5,0.6-2.1s1-0.8,1.7-0.8
		c0.7,0,1.2,0.2,1.6,0.7c0.4,0.4,0.6,1,0.6,1.7v0.5h-3.7c0,0.6,0.2,1.1,0.5,1.4c0.3,0.3,0.7,0.5,1.3,0.5c0.6,0,1.1-0.1,1.7-0.4v0.7
		c-0.3,0.1-0.6,0.2-0.8,0.3S38.7,26.2,38.4,26.2z M38.1,21.4c-0.4,0-0.8,0.1-1,0.4c-0.3,0.3-0.4,0.7-0.5,1.2h2.8
		c0-0.5-0.1-0.9-0.3-1.2C38.9,21.5,38.6,21.4,38.1,21.4z"/>
	<path class="st6" d="M44.1,20.7c0.2,0,0.5,0,0.6,0.1l-0.1,0.8c-0.2,0-0.4-0.1-0.6-0.1c-0.4,0-0.8,0.2-1.1,0.5s-0.5,0.8-0.5,1.3v2.9
		h-0.8v-5.4h0.7l0.1,1h0c0.2-0.3,0.4-0.6,0.7-0.8C43.5,20.8,43.8,20.7,44.1,20.7z"/>
	<path class="st6" d="M48,26.2c-0.8,0-1.4-0.2-1.9-0.7c-0.5-0.5-0.7-1.2-0.7-2c0-0.9,0.2-1.5,0.6-2.1s1-0.8,1.7-0.8
		c0.7,0,1.2,0.2,1.6,0.7c0.4,0.4,0.6,1,0.6,1.7v0.5h-3.7c0,0.6,0.2,1.1,0.5,1.4c0.3,0.3,0.7,0.5,1.3,0.5c0.6,0,1.1-0.1,1.7-0.4v0.7
		c-0.3,0.1-0.6,0.2-0.8,0.3S48.4,26.2,48,26.2z M47.8,21.4c-0.4,0-0.8,0.1-1,0.4c-0.3,0.3-0.4,0.7-0.5,1.2h2.8
		c0-0.5-0.1-0.9-0.3-1.2C48.6,21.5,48.3,21.4,47.8,21.4z"/>
	<path class="st6" d="M55,25.4L55,25.4c-0.4,0.5-1,0.8-1.7,0.8c-0.7,0-1.2-0.2-1.6-0.7s-0.6-1.2-0.6-2c0-0.9,0.2-1.6,0.6-2.1
		s0.9-0.7,1.6-0.7c0.7,0,1.3,0.3,1.7,0.8h0.1l0-0.4l0-0.4v-2.2h0.8v7.6h-0.7L55,25.4z M53.4,25.6c0.6,0,1-0.2,1.2-0.5
		c0.2-0.3,0.4-0.8,0.4-1.5v-0.2c0-0.8-0.1-1.3-0.4-1.6c-0.3-0.3-0.7-0.5-1.2-0.5c-0.5,0-0.8,0.2-1.1,0.6c-0.3,0.4-0.4,0.9-0.4,1.6
		c0,0.7,0.1,1.2,0.4,1.5C52.6,25.4,52.9,25.6,53.4,25.6z"/>
	<path class="st6" d="M62.6,20.7c0.7,0,1.2,0.2,1.6,0.7c0.4,0.5,0.6,1.2,0.6,2s-0.2,1.6-0.6,2c-0.4,0.5-0.9,0.7-1.6,0.7
		c-0.3,0-0.7-0.1-1-0.2c-0.3-0.1-0.5-0.3-0.7-0.6h-0.1l-0.2,0.7h-0.6v-7.6h0.8v1.8c0,0.4,0,0.8,0,1.1h0C61.3,21,61.9,20.7,62.6,20.7
		z M62.5,21.4c-0.6,0-1,0.2-1.2,0.5s-0.4,0.9-0.4,1.6s0.1,1.3,0.4,1.6c0.3,0.3,0.7,0.5,1.2,0.5c0.5,0,0.9-0.2,1.1-0.5
		c0.2-0.4,0.4-0.9,0.4-1.6c0-0.7-0.1-1.2-0.4-1.6S63,21.4,62.5,21.4z"/>
	<path class="st6" d="M65.4,20.8h0.9l1.2,3.1c0.3,0.7,0.4,1.2,0.5,1.5h0c0-0.2,0.1-0.5,0.3-0.9c0.1-0.4,0.6-1.6,1.3-3.7h0.9
		l-2.3,6.1c-0.2,0.6-0.5,1-0.8,1.3c-0.3,0.3-0.7,0.4-1.1,0.4c-0.2,0-0.5,0-0.7-0.1v-0.6c0.2,0,0.4,0.1,0.6,0.1c0.6,0,1-0.3,1.2-0.9
		l0.3-0.8L65.4,20.8z"/>
</g>
</svg>
