<?xml version="1.0" encoding="utf-8"?>
<!-- Generator: Adobe Illustrator 22.1.0, SVG Export Plug-In . SVG Version: 6.00 Build 0)  -->
<svg version="1.1" id="Layer_1" xmlns="http://www.w3.org/2000/svg" xmlns:xlink="http://www.w3.org/1999/xlink" x="0px" y="0px"
	 viewBox="0 0 267.1 71.3" style="enable-background:new 0 0 267.1 71.3;" xml:space="preserve">
<style type="text/css">
	.st0{fill:#72166B;}
	.st1{fill:#E7E7E8;}
	.st2{fill:#6E6E71;}
	.st3{fill:#DADADA;}
	.st4{opacity:0.5;}
	.st5{fill:#FFFFFF;}
	.st6{fill:#C6C6C6;}
	.st7{fill:#561450;}
	.st8{fill:#6E6E71;fill-opacity:0.46;}
	.st9{fill:#0085CC;}
	.st10{fill:#AC22A1;}
	.st11{opacity:0.5;fill:#EDEDED;}
	.st12{fill:#EDEDED;}
	.st13{fill:#B2B2B2;}
	.st14{opacity:0.7;}
	.st15{fill:#F18A0D;}
	.st16{fill:#1D1D1B;}
	.st17{fill:#F9F9F9;}
	.st18{fill:none;stroke:#DADADA;stroke-width:2;stroke-miterlimit:10;}
	.st19{fill:none;stroke:#DADADA;stroke-miterlimit:10;}
	.st20{fill:#3C3C3B;}
	.st21{fill:#8C61AA;}
	.st22{fill:none;stroke:#72166B;stroke-width:4;stroke-miterlimit:10;}
	.st23{fill:#FFFFFF;stroke:#72166B;stroke-width:4;stroke-miterlimit:10;}
	.st24{fill:none;stroke:#72166B;stroke-width:3.53;stroke-miterlimit:10;}
	.st25{fill:#FFFFFF;stroke:#72166B;stroke-width:3.53;stroke-miterlimit:10;}
	.st26{fill:none;stroke:#72166B;stroke-width:1.7587;stroke-miterlimit:10;}
	.st27{fill:#FFFFFF;stroke:#72166B;stroke-width:1.7587;stroke-miterlimit:10;}
	.st28{fill:none;stroke:#36A9E1;stroke-miterlimit:10;}
	.st29{fill:none;}
</style>
<g>
	<g>
		<path class="st5" d="M89.1,49.1c-1.5,0-2.9-0.3-4.1-0.8c-1.3-0.6-2.3-1.4-3.1-2.6h-0.3c0.2,1.4,0.3,2.6,0.3,3.9v9.6h-3.5V25.4h2.9
			l0.5,3.2h0.2c0.9-1.3,2-2.2,3.2-2.8c1.2-0.6,2.6-0.8,4.1-0.8c3.1,0,5.5,1.1,7.1,3.2c1.7,2.1,2.5,5.1,2.5,8.9
			c0,3.8-0.9,6.8-2.6,8.9C94.5,48,92.1,49.1,89.1,49.1z M88.6,28c-2.4,0-4.1,0.7-5.1,2c-1.1,1.3-1.6,3.4-1.6,6.3V37
			c0,3.3,0.5,5.6,1.6,7c1.1,1.4,2.8,2.1,5.2,2.1c2,0,3.6-0.8,4.7-2.4c1.1-1.6,1.7-3.9,1.7-6.7c0-2.9-0.6-5.1-1.7-6.7
			C92.2,28.8,90.6,28,88.6,28z"/>
		<path class="st5" d="M115,25c1,0,2,0.1,2.8,0.3l-0.5,3.3c-1-0.2-1.8-0.3-2.5-0.3c-1.9,0-3.5,0.8-4.8,2.3c-1.3,1.5-2,3.4-2,5.7
			v12.5h-3.5V25.4h2.9l0.4,4.3h0.2c0.9-1.5,1.9-2.7,3.1-3.5C112.2,25.4,113.6,25,115,25z"/>
		<path class="st5" d="M132.5,49.1c-1.5,0-2.9-0.3-4.1-0.8c-1.3-0.6-2.3-1.4-3.1-2.6H125c0.2,1.4,0.3,2.6,0.3,3.9v9.6h-3.5V25.4h2.9
			l0.5,3.2h0.2c0.9-1.3,2-2.2,3.2-2.8c1.2-0.6,2.6-0.8,4.1-0.8c3.1,0,5.5,1.1,7.1,3.2c1.7,2.1,2.5,5.1,2.5,8.9
			c0,3.8-0.9,6.8-2.6,8.9C137.9,48,135.5,49.1,132.5,49.1z M132,28c-2.4,0-4.1,0.7-5.1,2c-1.1,1.3-1.6,3.4-1.6,6.3V37
			c0,3.3,0.5,5.6,1.6,7c1.1,1.4,2.8,2.1,5.2,2.1c2,0,3.6-0.8,4.7-2.4c1.1-1.6,1.7-3.9,1.7-6.7c0-2.9-0.6-5.1-1.7-6.7
			C135.7,28.8,134.1,28,132,28z"/>
		<path class="st5" d="M151.4,48.7h-3.5v-33h3.5V48.7z"/>
		<path class="st5" d="M172.7,48.7l-10.5-27.5H162c0.2,2.2,0.3,4.8,0.3,7.8v19.7h-3.3v-31h5.4l9.8,25.6h0.2l9.9-25.6h5.4v31H186v-20
			c0-2.3,0.1-4.8,0.3-7.5h-0.2l-10.6,27.4H172.7z"/>
		<path class="st5" d="M207,49.1c-3.4,0-6.1-1-8.1-3.1c-2-2.1-3-5-3-8.7c0-3.7,0.9-6.7,2.8-8.9c1.8-2.2,4.3-3.3,7.4-3.3
			c2.9,0,5.2,1,6.9,2.9c1.7,1.9,2.5,4.4,2.5,7.6v2.2h-16c0.1,2.7,0.8,4.8,2.1,6.2s3.1,2.1,5.5,2.1c2.5,0,5-0.5,7.4-1.6v3.1
			c-1.2,0.5-2.4,0.9-3.5,1.2C209.9,49,208.5,49.1,207,49.1z M206,28c-1.9,0-3.4,0.6-4.5,1.8c-1.1,1.2-1.8,2.9-2,5h12.1
			c0-2.2-0.5-3.9-1.5-5.1C209.3,28.6,207.9,28,206,28z"/>
		<path class="st5" d="M236.1,42.3c0,2.2-0.8,3.8-2.4,5c-1.6,1.2-3.9,1.8-6.8,1.8c-3.1,0-5.5-0.5-7.2-1.5v-3.3
			c1.1,0.6,2.3,1,3.6,1.3c1.3,0.3,2.5,0.5,3.7,0.5c1.8,0,3.2-0.3,4.2-0.9s1.5-1.5,1.5-2.7c0-0.9-0.4-1.7-1.2-2.3
			c-0.8-0.6-2.3-1.4-4.6-2.3c-2.2-0.8-3.7-1.5-4.6-2.1s-1.6-1.3-2-2c-0.4-0.8-0.7-1.7-0.7-2.7c0-1.9,0.8-3.4,2.3-4.5
			c1.5-1.1,3.7-1.6,6.3-1.6c2.5,0,4.9,0.5,7.3,1.5l-1.3,2.9c-2.3-1-4.4-1.4-6.3-1.4c-1.7,0-2.9,0.3-3.8,0.8
			c-0.8,0.5-1.3,1.2-1.3,2.2c0,0.6,0.2,1.2,0.5,1.6c0.3,0.4,0.8,0.9,1.5,1.2c0.7,0.4,2.1,1,4.1,1.7c2.8,1,4.6,2,5.6,3
			C235.6,39.5,236.1,40.8,236.1,42.3z"/>
		<path class="st5" d="M257.2,48.7v-15c0-1.9-0.4-3.3-1.3-4.2c-0.9-0.9-2.2-1.4-4-1.4c-2.4,0-4.2,0.7-5.4,2s-1.7,3.5-1.7,6.5v12.1
			h-3.5v-33h3.5v10c0,1.2-0.1,2.2-0.2,3h0.2c0.7-1.1,1.7-2,3-2.6c1.3-0.6,2.7-1,4.4-1c2.8,0,5,0.7,6.4,2c1.4,1.3,2.1,3.5,2.1,6.4
			v15.2H257.2z"/>
	</g>
</g>
<g>
	<path class="st5" d="M32.8,22.1c4.5,0,8.5,2.1,11,5.5L56.9,20L32.8,6.1L8.7,20l13.1,7.6C24.4,24.2,28.4,22.1,32.8,22.1z"/>
	<path class="st5" d="M45.6,30.6c0.7,1.6,1.1,3.4,1.1,5.3c0,7-5.3,12.8-12.1,13.7v15.1l24.1-13.9V23L45.6,30.6z"/>
	<path class="st5" d="M19,35.9c0-1.9,0.4-3.7,1.1-5.3L7,23v27.8l24.1,13.9V49.6C24.3,48.8,19,43,19,35.9z"/>
	<circle class="st5" cx="32.8" cy="35.9" r="10.3"/>
</g>
</svg>
